<mxfile host="app.diagrams.net" modified="2020-08-26T07:56:16.286Z" agent="5.0 (Macintosh; Intel Mac OS X 10_15_4) AppleWebKit/537.36 (KHTML, like Gecko) Chrome/84.0.4147.135 Safari/537.36" etag="joeQUVALvlF_GJ3qcFl4" version="13.6.4" type="github">
  <diagram id="B2twtIXwLUbLA7ONazHW" name="小应用状态转变说明">
    <mxGraphModel dx="1351" dy="1740" grid="1" gridSize="10" guides="1" tooltips="1" connect="1" arrows="1" fold="1" page="1" pageScale="1" pageWidth="1100" pageHeight="850" math="0" shadow="0">
      <root>
        <mxCell id="0" />
        <mxCell id="1" parent="0" />
        <mxCell id="3q3ejGgtsJXcqNAGcY9j-19" style="edgeStyle=orthogonalEdgeStyle;rounded=0;orthogonalLoop=1;jettySize=auto;html=1;" parent="1" source="3q3ejGgtsJXcqNAGcY9j-1" target="3q3ejGgtsJXcqNAGcY9j-9" edge="1">
          <mxGeometry relative="1" as="geometry" />
        </mxCell>
        <mxCell id="3q3ejGgtsJXcqNAGcY9j-1" value="小应用列表页" style="rounded=0;whiteSpace=wrap;html=1;" parent="1" vertex="1">
          <mxGeometry x="540" y="60" width="120" height="60" as="geometry" />
        </mxCell>
        <mxCell id="3q3ejGgtsJXcqNAGcY9j-18" style="edgeStyle=orthogonalEdgeStyle;rounded=0;orthogonalLoop=1;jettySize=auto;html=1;entryX=0.5;entryY=0;entryDx=0;entryDy=0;" parent="1" source="3q3ejGgtsJXcqNAGcY9j-2" target="3q3ejGgtsJXcqNAGcY9j-1" edge="1">
          <mxGeometry relative="1" as="geometry" />
        </mxCell>
        <mxCell id="3q3ejGgtsJXcqNAGcY9j-2" value="开始" style="rounded=1;whiteSpace=wrap;html=1;" parent="1" vertex="1">
          <mxGeometry x="540" y="-50" width="120" height="60" as="geometry" />
        </mxCell>
        <mxCell id="3q3ejGgtsJXcqNAGcY9j-20" style="edgeStyle=orthogonalEdgeStyle;rounded=0;orthogonalLoop=1;jettySize=auto;html=1;" parent="1" source="3q3ejGgtsJXcqNAGcY9j-3" target="3q3ejGgtsJXcqNAGcY9j-6" edge="1">
          <mxGeometry relative="1" as="geometry" />
        </mxCell>
        <mxCell id="3q3ejGgtsJXcqNAGcY9j-3" value="小应用-未开启" style="rounded=0;whiteSpace=wrap;html=1;" parent="1" vertex="1">
          <mxGeometry x="540" y="425" width="120" height="60" as="geometry" />
        </mxCell>
        <mxCell id="3q3ejGgtsJXcqNAGcY9j-4" value="小应用 - 已开通" style="rounded=0;whiteSpace=wrap;html=1;" parent="1" vertex="1">
          <mxGeometry x="1330" y="425" width="120" height="60" as="geometry" />
        </mxCell>
        <mxCell id="3q3ejGgtsJXcqNAGcY9j-26" value="" style="edgeStyle=orthogonalEdgeStyle;rounded=0;orthogonalLoop=1;jettySize=auto;html=1;" parent="1" source="3q3ejGgtsJXcqNAGcY9j-5" target="3q3ejGgtsJXcqNAGcY9j-25" edge="1">
          <mxGeometry relative="1" as="geometry" />
        </mxCell>
        <mxCell id="3q3ejGgtsJXcqNAGcY9j-5" value="小应用 - 已过期" style="rounded=0;whiteSpace=wrap;html=1;" parent="1" vertex="1">
          <mxGeometry x="940" y="425" width="120" height="60" as="geometry" />
        </mxCell>
        <mxCell id="Pd2RQs8wR5pkW_N9cqv4-30" style="edgeStyle=orthogonalEdgeStyle;rounded=0;orthogonalLoop=1;jettySize=auto;html=1;exitX=0.5;exitY=1;exitDx=0;exitDy=0;" edge="1" parent="1" source="3q3ejGgtsJXcqNAGcY9j-6">
          <mxGeometry relative="1" as="geometry">
            <mxPoint x="820" y="680" as="targetPoint" />
          </mxGeometry>
        </mxCell>
        <mxCell id="3q3ejGgtsJXcqNAGcY9j-6" value="开启 按钮" style="rounded=0;whiteSpace=wrap;html=1;" parent="1" vertex="1">
          <mxGeometry x="540" y="555" width="120" height="60" as="geometry" />
        </mxCell>
        <mxCell id="Pd2RQs8wR5pkW_N9cqv4-16" value="" style="edgeStyle=orthogonalEdgeStyle;rounded=0;orthogonalLoop=1;jettySize=auto;html=1;" edge="1" parent="1" source="3q3ejGgtsJXcqNAGcY9j-8" target="Pd2RQs8wR5pkW_N9cqv4-15">
          <mxGeometry relative="1" as="geometry" />
        </mxCell>
        <mxCell id="Pd2RQs8wR5pkW_N9cqv4-17" value="YES" style="edgeLabel;html=1;align=center;verticalAlign=middle;resizable=0;points=[];" vertex="1" connectable="0" parent="Pd2RQs8wR5pkW_N9cqv4-16">
          <mxGeometry x="-0.2" relative="1" as="geometry">
            <mxPoint as="offset" />
          </mxGeometry>
        </mxCell>
        <mxCell id="Pd2RQs8wR5pkW_N9cqv4-19" style="edgeStyle=orthogonalEdgeStyle;rounded=0;orthogonalLoop=1;jettySize=auto;html=1;entryX=0;entryY=0.5;entryDx=0;entryDy=0;" edge="1" parent="1" source="3q3ejGgtsJXcqNAGcY9j-8" target="Pd2RQs8wR5pkW_N9cqv4-18">
          <mxGeometry relative="1" as="geometry">
            <Array as="points">
              <mxPoint x="180" y="890" />
              <mxPoint x="180" y="1700" />
            </Array>
          </mxGeometry>
        </mxCell>
        <mxCell id="Pd2RQs8wR5pkW_N9cqv4-20" value="NO" style="edgeLabel;html=1;align=center;verticalAlign=middle;resizable=0;points=[];" vertex="1" connectable="0" parent="Pd2RQs8wR5pkW_N9cqv4-19">
          <mxGeometry x="-0.1854" y="1" relative="1" as="geometry">
            <mxPoint as="offset" />
          </mxGeometry>
        </mxCell>
        <mxCell id="3q3ejGgtsJXcqNAGcY9j-8" value="是否配置落地页？" style="rhombus;whiteSpace=wrap;html=1;" parent="1" vertex="1">
          <mxGeometry x="320" y="850" width="80" height="80" as="geometry" />
        </mxCell>
        <mxCell id="3q3ejGgtsJXcqNAGcY9j-11" style="edgeStyle=orthogonalEdgeStyle;rounded=0;orthogonalLoop=1;jettySize=auto;html=1;entryX=0.5;entryY=0;entryDx=0;entryDy=0;" parent="1" source="3q3ejGgtsJXcqNAGcY9j-9" target="3q3ejGgtsJXcqNAGcY9j-10" edge="1">
          <mxGeometry relative="1" as="geometry" />
        </mxCell>
        <mxCell id="3q3ejGgtsJXcqNAGcY9j-15" value="NO" style="edgeLabel;html=1;align=center;verticalAlign=middle;resizable=0;points=[];" parent="3q3ejGgtsJXcqNAGcY9j-11" vertex="1" connectable="0">
          <mxGeometry x="-0.2571" y="2" relative="1" as="geometry">
            <mxPoint as="offset" />
          </mxGeometry>
        </mxCell>
        <mxCell id="3q3ejGgtsJXcqNAGcY9j-13" style="edgeStyle=orthogonalEdgeStyle;rounded=0;orthogonalLoop=1;jettySize=auto;html=1;" parent="1" source="3q3ejGgtsJXcqNAGcY9j-9" edge="1">
          <mxGeometry relative="1" as="geometry">
            <mxPoint x="980" y="400" as="targetPoint" />
          </mxGeometry>
        </mxCell>
        <mxCell id="3q3ejGgtsJXcqNAGcY9j-14" value="YES" style="edgeLabel;html=1;align=center;verticalAlign=middle;resizable=0;points=[];" parent="3q3ejGgtsJXcqNAGcY9j-13" vertex="1" connectable="0">
          <mxGeometry x="-0.4833" y="1" relative="1" as="geometry">
            <mxPoint as="offset" />
          </mxGeometry>
        </mxCell>
        <mxCell id="3q3ejGgtsJXcqNAGcY9j-9" value="应用已上线？" style="rhombus;whiteSpace=wrap;html=1;" parent="1" vertex="1">
          <mxGeometry x="560" y="190" width="80" height="80" as="geometry" />
        </mxCell>
        <mxCell id="3q3ejGgtsJXcqNAGcY9j-17" value="" style="edgeStyle=orthogonalEdgeStyle;rounded=0;orthogonalLoop=1;jettySize=auto;html=1;" parent="1" source="3q3ejGgtsJXcqNAGcY9j-10" target="3q3ejGgtsJXcqNAGcY9j-16" edge="1">
          <mxGeometry relative="1" as="geometry" />
        </mxCell>
        <mxCell id="3q3ejGgtsJXcqNAGcY9j-10" value="显示 抢先体验 按钮" style="rounded=0;whiteSpace=wrap;html=1;" parent="1" vertex="1">
          <mxGeometry x="80" y="425" width="120" height="60" as="geometry" />
        </mxCell>
        <mxCell id="3q3ejGgtsJXcqNAGcY9j-12" value="" style="endArrow=none;html=1;" parent="1" edge="1">
          <mxGeometry width="50" height="50" relative="1" as="geometry">
            <mxPoint x="540" y="400" as="sourcePoint" />
            <mxPoint x="1480" y="400" as="targetPoint" />
          </mxGeometry>
        </mxCell>
        <mxCell id="3q3ejGgtsJXcqNAGcY9j-16" value="显示入群二维码" style="whiteSpace=wrap;html=1;rounded=0;" parent="1" vertex="1">
          <mxGeometry x="80" y="555" width="120" height="60" as="geometry" />
        </mxCell>
        <mxCell id="3q3ejGgtsJXcqNAGcY9j-24" style="edgeStyle=orthogonalEdgeStyle;rounded=0;orthogonalLoop=1;jettySize=auto;html=1;exitX=0.5;exitY=1;exitDx=0;exitDy=0;" parent="1" source="3q3ejGgtsJXcqNAGcY9j-4" target="3q3ejGgtsJXcqNAGcY9j-23" edge="1">
          <mxGeometry relative="1" as="geometry">
            <mxPoint x="1040" y="615" as="sourcePoint" />
          </mxGeometry>
        </mxCell>
        <mxCell id="3q3ejGgtsJXcqNAGcY9j-28" value="YES" style="edgeStyle=orthogonalEdgeStyle;rounded=0;orthogonalLoop=1;jettySize=auto;html=1;exitX=1;exitY=0.5;exitDx=0;exitDy=0;" parent="1" source="3q3ejGgtsJXcqNAGcY9j-23" target="3q3ejGgtsJXcqNAGcY9j-27" edge="1">
          <mxGeometry relative="1" as="geometry" />
        </mxCell>
        <mxCell id="Pd2RQs8wR5pkW_N9cqv4-4" style="edgeStyle=orthogonalEdgeStyle;rounded=0;orthogonalLoop=1;jettySize=auto;html=1;" edge="1" parent="1" source="3q3ejGgtsJXcqNAGcY9j-23" target="Pd2RQs8wR5pkW_N9cqv4-1">
          <mxGeometry relative="1" as="geometry" />
        </mxCell>
        <mxCell id="Pd2RQs8wR5pkW_N9cqv4-5" value="NO" style="edgeLabel;html=1;align=center;verticalAlign=middle;resizable=0;points=[];" vertex="1" connectable="0" parent="Pd2RQs8wR5pkW_N9cqv4-4">
          <mxGeometry x="-0.075" y="-2" relative="1" as="geometry">
            <mxPoint as="offset" />
          </mxGeometry>
        </mxCell>
        <mxCell id="3q3ejGgtsJXcqNAGcY9j-23" value="到期时间&amp;lt;=30天？" style="rhombus;whiteSpace=wrap;html=1;" parent="1" vertex="1">
          <mxGeometry x="1350" y="550" width="80" height="80" as="geometry" />
        </mxCell>
        <mxCell id="Pd2RQs8wR5pkW_N9cqv4-76" style="edgeStyle=orthogonalEdgeStyle;rounded=0;orthogonalLoop=1;jettySize=auto;html=1;exitX=0.5;exitY=1;exitDx=0;exitDy=0;" edge="1" parent="1" source="3q3ejGgtsJXcqNAGcY9j-25">
          <mxGeometry relative="1" as="geometry">
            <mxPoint x="820" y="680" as="targetPoint" />
          </mxGeometry>
        </mxCell>
        <mxCell id="3q3ejGgtsJXcqNAGcY9j-25" value="续费 按钮" style="whiteSpace=wrap;html=1;rounded=0;" parent="1" vertex="1">
          <mxGeometry x="940" y="555" width="120" height="60" as="geometry" />
        </mxCell>
        <mxCell id="Pd2RQs8wR5pkW_N9cqv4-6" style="edgeStyle=orthogonalEdgeStyle;rounded=0;orthogonalLoop=1;jettySize=auto;html=1;entryX=1;entryY=0.65;entryDx=0;entryDy=0;entryPerimeter=0;exitX=0.5;exitY=1;exitDx=0;exitDy=0;" edge="1" parent="1" source="3q3ejGgtsJXcqNAGcY9j-27" target="Pd2RQs8wR5pkW_N9cqv4-1">
          <mxGeometry relative="1" as="geometry" />
        </mxCell>
        <mxCell id="3q3ejGgtsJXcqNAGcY9j-27" value="显示 到期提醒&lt;br&gt;（按天倒计时）" style="whiteSpace=wrap;html=1;" parent="1" vertex="1">
          <mxGeometry x="1530" y="560" width="120" height="60" as="geometry" />
        </mxCell>
        <mxCell id="Pd2RQs8wR5pkW_N9cqv4-8" value="" style="edgeStyle=orthogonalEdgeStyle;rounded=0;orthogonalLoop=1;jettySize=auto;html=1;" edge="1" parent="1" source="Pd2RQs8wR5pkW_N9cqv4-1" target="Pd2RQs8wR5pkW_N9cqv4-7">
          <mxGeometry relative="1" as="geometry" />
        </mxCell>
        <mxCell id="Pd2RQs8wR5pkW_N9cqv4-1" value="打开 按钮" style="rounded=0;whiteSpace=wrap;html=1;" vertex="1" parent="1">
          <mxGeometry x="1330" y="710" width="120" height="60" as="geometry" />
        </mxCell>
        <mxCell id="Pd2RQs8wR5pkW_N9cqv4-7" value="进入应用主页面" style="whiteSpace=wrap;html=1;rounded=0;" vertex="1" parent="1">
          <mxGeometry x="1330" y="850" width="120" height="60" as="geometry" />
        </mxCell>
        <mxCell id="Pd2RQs8wR5pkW_N9cqv4-12" style="edgeStyle=orthogonalEdgeStyle;rounded=0;orthogonalLoop=1;jettySize=auto;html=1;entryX=1;entryY=0.5;entryDx=0;entryDy=0;dashed=1;" edge="1" parent="1" source="Pd2RQs8wR5pkW_N9cqv4-11" target="Pd2RQs8wR5pkW_N9cqv4-7">
          <mxGeometry relative="1" as="geometry" />
        </mxCell>
        <mxCell id="Pd2RQs8wR5pkW_N9cqv4-11" value="支持&lt;br&gt;APP内页面&lt;br&gt;H5页面&lt;br&gt;调起微信小程序" style="shape=note;whiteSpace=wrap;html=1;backgroundOutline=1;darkOpacity=0.05;" vertex="1" parent="1">
          <mxGeometry x="1530" y="830" width="140" height="100" as="geometry" />
        </mxCell>
        <mxCell id="Pd2RQs8wR5pkW_N9cqv4-78" value="" style="edgeStyle=orthogonalEdgeStyle;rounded=0;orthogonalLoop=1;jettySize=auto;html=1;" edge="1" parent="1" source="Pd2RQs8wR5pkW_N9cqv4-15" target="Pd2RQs8wR5pkW_N9cqv4-77">
          <mxGeometry relative="1" as="geometry" />
        </mxCell>
        <mxCell id="Pd2RQs8wR5pkW_N9cqv4-15" value="进入应用详情页" style="whiteSpace=wrap;html=1;" vertex="1" parent="1">
          <mxGeometry x="300" y="1020" width="120" height="60" as="geometry" />
        </mxCell>
        <mxCell id="Pd2RQs8wR5pkW_N9cqv4-43" value="" style="edgeStyle=orthogonalEdgeStyle;rounded=0;orthogonalLoop=1;jettySize=auto;html=1;" edge="1" parent="1" source="Pd2RQs8wR5pkW_N9cqv4-18" target="Pd2RQs8wR5pkW_N9cqv4-42">
          <mxGeometry relative="1" as="geometry" />
        </mxCell>
        <mxCell id="Pd2RQs8wR5pkW_N9cqv4-18" value="调起付费" style="whiteSpace=wrap;html=1;" vertex="1" parent="1">
          <mxGeometry x="300" y="1670" width="120" height="60" as="geometry" />
        </mxCell>
        <mxCell id="Pd2RQs8wR5pkW_N9cqv4-24" style="edgeStyle=orthogonalEdgeStyle;rounded=0;orthogonalLoop=1;jettySize=auto;html=1;" edge="1" parent="1" source="Pd2RQs8wR5pkW_N9cqv4-22" target="Pd2RQs8wR5pkW_N9cqv4-18">
          <mxGeometry relative="1" as="geometry" />
        </mxCell>
        <mxCell id="Pd2RQs8wR5pkW_N9cqv4-22" value="开启" style="whiteSpace=wrap;html=1;" vertex="1" parent="1">
          <mxGeometry x="300" y="1540" width="120" height="60" as="geometry" />
        </mxCell>
        <mxCell id="Pd2RQs8wR5pkW_N9cqv4-31" style="edgeStyle=orthogonalEdgeStyle;rounded=0;orthogonalLoop=1;jettySize=auto;html=1;" edge="1" parent="1" source="Pd2RQs8wR5pkW_N9cqv4-25" target="3q3ejGgtsJXcqNAGcY9j-8">
          <mxGeometry relative="1" as="geometry" />
        </mxCell>
        <mxCell id="Pd2RQs8wR5pkW_N9cqv4-25" value="增值服务" style="rounded=0;whiteSpace=wrap;html=1;" vertex="1" parent="1">
          <mxGeometry x="300" y="700" width="120" height="60" as="geometry" />
        </mxCell>
        <mxCell id="Pd2RQs8wR5pkW_N9cqv4-33" style="edgeStyle=orthogonalEdgeStyle;rounded=0;orthogonalLoop=1;jettySize=auto;html=1;entryX=0.5;entryY=0;entryDx=0;entryDy=0;" edge="1" parent="1" source="Pd2RQs8wR5pkW_N9cqv4-26" target="Pd2RQs8wR5pkW_N9cqv4-32">
          <mxGeometry relative="1" as="geometry" />
        </mxCell>
        <mxCell id="Pd2RQs8wR5pkW_N9cqv4-26" value="会员服务" style="rounded=0;whiteSpace=wrap;html=1;" vertex="1" parent="1">
          <mxGeometry x="730" y="700" width="120" height="60" as="geometry" />
        </mxCell>
        <mxCell id="Pd2RQs8wR5pkW_N9cqv4-69" style="edgeStyle=orthogonalEdgeStyle;rounded=0;orthogonalLoop=1;jettySize=auto;html=1;" edge="1" parent="1" source="Pd2RQs8wR5pkW_N9cqv4-27" target="Pd2RQs8wR5pkW_N9cqv4-66">
          <mxGeometry relative="1" as="geometry" />
        </mxCell>
        <mxCell id="Pd2RQs8wR5pkW_N9cqv4-27" value="免费服务" style="rounded=0;whiteSpace=wrap;html=1;" vertex="1" parent="1">
          <mxGeometry x="1010" y="700" width="120" height="60" as="geometry" />
        </mxCell>
        <mxCell id="Pd2RQs8wR5pkW_N9cqv4-29" value="" style="endArrow=none;html=1;" edge="1" parent="1">
          <mxGeometry width="50" height="50" relative="1" as="geometry">
            <mxPoint x="300" y="680" as="sourcePoint" />
            <mxPoint x="1120" y="680" as="targetPoint" />
          </mxGeometry>
        </mxCell>
        <mxCell id="Pd2RQs8wR5pkW_N9cqv4-35" value="YES" style="edgeStyle=orthogonalEdgeStyle;rounded=0;orthogonalLoop=1;jettySize=auto;html=1;" edge="1" parent="1" source="Pd2RQs8wR5pkW_N9cqv4-32" target="Pd2RQs8wR5pkW_N9cqv4-34">
          <mxGeometry relative="1" as="geometry" />
        </mxCell>
        <mxCell id="Pd2RQs8wR5pkW_N9cqv4-49" style="edgeStyle=orthogonalEdgeStyle;rounded=0;orthogonalLoop=1;jettySize=auto;html=1;entryX=0;entryY=0.5;entryDx=0;entryDy=0;" edge="1" parent="1" source="Pd2RQs8wR5pkW_N9cqv4-32" target="Pd2RQs8wR5pkW_N9cqv4-38">
          <mxGeometry relative="1" as="geometry">
            <Array as="points">
              <mxPoint x="640" y="890" />
              <mxPoint x="640" y="1610" />
            </Array>
          </mxGeometry>
        </mxCell>
        <mxCell id="Pd2RQs8wR5pkW_N9cqv4-50" value="NO" style="edgeLabel;html=1;align=center;verticalAlign=middle;resizable=0;points=[];" vertex="1" connectable="0" parent="Pd2RQs8wR5pkW_N9cqv4-49">
          <mxGeometry x="-0.1479" y="3" relative="1" as="geometry">
            <mxPoint x="-1" y="-1" as="offset" />
          </mxGeometry>
        </mxCell>
        <mxCell id="Pd2RQs8wR5pkW_N9cqv4-32" value="是否配置落地页？" style="rhombus;whiteSpace=wrap;html=1;" vertex="1" parent="1">
          <mxGeometry x="750" y="850" width="80" height="80" as="geometry" />
        </mxCell>
        <mxCell id="Pd2RQs8wR5pkW_N9cqv4-91" style="edgeStyle=orthogonalEdgeStyle;rounded=0;orthogonalLoop=1;jettySize=auto;html=1;entryX=0.5;entryY=0;entryDx=0;entryDy=0;" edge="1" parent="1" source="Pd2RQs8wR5pkW_N9cqv4-34" target="Pd2RQs8wR5pkW_N9cqv4-88">
          <mxGeometry relative="1" as="geometry" />
        </mxCell>
        <mxCell id="Pd2RQs8wR5pkW_N9cqv4-34" value="进入应用详情页" style="whiteSpace=wrap;html=1;" vertex="1" parent="1">
          <mxGeometry x="730" y="1020" width="120" height="60" as="geometry" />
        </mxCell>
        <mxCell id="Pd2RQs8wR5pkW_N9cqv4-39" value="" style="edgeStyle=orthogonalEdgeStyle;rounded=0;orthogonalLoop=1;jettySize=auto;html=1;" edge="1" parent="1" source="Pd2RQs8wR5pkW_N9cqv4-36" target="Pd2RQs8wR5pkW_N9cqv4-38">
          <mxGeometry relative="1" as="geometry" />
        </mxCell>
        <mxCell id="Pd2RQs8wR5pkW_N9cqv4-36" value="开启" style="whiteSpace=wrap;html=1;" vertex="1" parent="1">
          <mxGeometry x="730" y="1470" width="120" height="60" as="geometry" />
        </mxCell>
        <mxCell id="Pd2RQs8wR5pkW_N9cqv4-41" value="NO" style="edgeStyle=orthogonalEdgeStyle;rounded=0;orthogonalLoop=1;jettySize=auto;html=1;" edge="1" parent="1" source="Pd2RQs8wR5pkW_N9cqv4-38" target="Pd2RQs8wR5pkW_N9cqv4-40">
          <mxGeometry relative="1" as="geometry" />
        </mxCell>
        <mxCell id="Pd2RQs8wR5pkW_N9cqv4-56" style="edgeStyle=orthogonalEdgeStyle;rounded=0;orthogonalLoop=1;jettySize=auto;html=1;entryX=1;entryY=0.5;entryDx=0;entryDy=0;exitX=1;exitY=0.5;exitDx=0;exitDy=0;" edge="1" parent="1" source="Pd2RQs8wR5pkW_N9cqv4-38" target="Pd2RQs8wR5pkW_N9cqv4-51">
          <mxGeometry relative="1" as="geometry">
            <Array as="points">
              <mxPoint x="910" y="1610" />
              <mxPoint x="910" y="2050" />
            </Array>
          </mxGeometry>
        </mxCell>
        <mxCell id="Pd2RQs8wR5pkW_N9cqv4-61" value="YES" style="edgeLabel;html=1;align=center;verticalAlign=middle;resizable=0;points=[];" vertex="1" connectable="0" parent="Pd2RQs8wR5pkW_N9cqv4-56">
          <mxGeometry x="-0.0906" y="-2" relative="1" as="geometry">
            <mxPoint as="offset" />
          </mxGeometry>
        </mxCell>
        <mxCell id="Pd2RQs8wR5pkW_N9cqv4-38" value="是否会员？" style="rhombus;whiteSpace=wrap;html=1;" vertex="1" parent="1">
          <mxGeometry x="750" y="1570" width="80" height="80" as="geometry" />
        </mxCell>
        <mxCell id="Pd2RQs8wR5pkW_N9cqv4-55" value="" style="edgeStyle=orthogonalEdgeStyle;rounded=0;orthogonalLoop=1;jettySize=auto;html=1;" edge="1" parent="1" source="Pd2RQs8wR5pkW_N9cqv4-40" target="Pd2RQs8wR5pkW_N9cqv4-54">
          <mxGeometry relative="1" as="geometry" />
        </mxCell>
        <mxCell id="Pd2RQs8wR5pkW_N9cqv4-40" value="购买会员子流程" style="whiteSpace=wrap;html=1;" vertex="1" parent="1">
          <mxGeometry x="730" y="1710" width="120" height="60" as="geometry" />
        </mxCell>
        <mxCell id="Pd2RQs8wR5pkW_N9cqv4-45" value="" style="edgeStyle=orthogonalEdgeStyle;rounded=0;orthogonalLoop=1;jettySize=auto;html=1;" edge="1" parent="1" source="Pd2RQs8wR5pkW_N9cqv4-42" target="Pd2RQs8wR5pkW_N9cqv4-44">
          <mxGeometry relative="1" as="geometry" />
        </mxCell>
        <mxCell id="Pd2RQs8wR5pkW_N9cqv4-46" value="YES" style="edgeLabel;html=1;align=center;verticalAlign=middle;resizable=0;points=[];" vertex="1" connectable="0" parent="Pd2RQs8wR5pkW_N9cqv4-45">
          <mxGeometry x="0.1429" relative="1" as="geometry">
            <mxPoint as="offset" />
          </mxGeometry>
        </mxCell>
        <mxCell id="Pd2RQs8wR5pkW_N9cqv4-48" value="NO" style="edgeStyle=orthogonalEdgeStyle;rounded=0;orthogonalLoop=1;jettySize=auto;html=1;" edge="1" parent="1" source="Pd2RQs8wR5pkW_N9cqv4-42" target="Pd2RQs8wR5pkW_N9cqv4-47">
          <mxGeometry relative="1" as="geometry" />
        </mxCell>
        <mxCell id="Pd2RQs8wR5pkW_N9cqv4-42" value="付费成功？" style="rhombus;whiteSpace=wrap;html=1;" vertex="1" parent="1">
          <mxGeometry x="320" y="1800" width="80" height="80" as="geometry" />
        </mxCell>
        <mxCell id="Pd2RQs8wR5pkW_N9cqv4-44" value="服务开启" style="whiteSpace=wrap;html=1;" vertex="1" parent="1">
          <mxGeometry x="300" y="2030" width="120" height="60" as="geometry" />
        </mxCell>
        <mxCell id="Pd2RQs8wR5pkW_N9cqv4-47" value="应用开启失败" style="whiteSpace=wrap;html=1;" vertex="1" parent="1">
          <mxGeometry x="130" y="1810" width="120" height="60" as="geometry" />
        </mxCell>
        <mxCell id="Pd2RQs8wR5pkW_N9cqv4-51" value="服务开启" style="whiteSpace=wrap;html=1;" vertex="1" parent="1">
          <mxGeometry x="730" y="2020" width="120" height="60" as="geometry" />
        </mxCell>
        <mxCell id="Pd2RQs8wR5pkW_N9cqv4-57" style="edgeStyle=orthogonalEdgeStyle;rounded=0;orthogonalLoop=1;jettySize=auto;html=1;entryX=0.5;entryY=0;entryDx=0;entryDy=0;" edge="1" parent="1" source="Pd2RQs8wR5pkW_N9cqv4-54" target="Pd2RQs8wR5pkW_N9cqv4-51">
          <mxGeometry relative="1" as="geometry" />
        </mxCell>
        <mxCell id="Pd2RQs8wR5pkW_N9cqv4-58" value="YES" style="edgeLabel;html=1;align=center;verticalAlign=middle;resizable=0;points=[];" vertex="1" connectable="0" parent="Pd2RQs8wR5pkW_N9cqv4-57">
          <mxGeometry x="-0.0571" y="1" relative="1" as="geometry">
            <mxPoint as="offset" />
          </mxGeometry>
        </mxCell>
        <mxCell id="Pd2RQs8wR5pkW_N9cqv4-60" value="" style="edgeStyle=orthogonalEdgeStyle;rounded=0;orthogonalLoop=1;jettySize=auto;html=1;" edge="1" parent="1" source="Pd2RQs8wR5pkW_N9cqv4-54" target="Pd2RQs8wR5pkW_N9cqv4-59">
          <mxGeometry relative="1" as="geometry" />
        </mxCell>
        <mxCell id="Pd2RQs8wR5pkW_N9cqv4-62" value="NO" style="edgeLabel;html=1;align=center;verticalAlign=middle;resizable=0;points=[];" vertex="1" connectable="0" parent="Pd2RQs8wR5pkW_N9cqv4-60">
          <mxGeometry x="-0.0238" y="-2" relative="1" as="geometry">
            <mxPoint as="offset" />
          </mxGeometry>
        </mxCell>
        <mxCell id="Pd2RQs8wR5pkW_N9cqv4-54" value="付费成功？" style="rhombus;whiteSpace=wrap;html=1;" vertex="1" parent="1">
          <mxGeometry x="750" y="1860" width="80" height="80" as="geometry" />
        </mxCell>
        <mxCell id="Pd2RQs8wR5pkW_N9cqv4-59" value="应用开启失败" style="whiteSpace=wrap;html=1;" vertex="1" parent="1">
          <mxGeometry x="590" y="1870" width="120" height="60" as="geometry" />
        </mxCell>
        <mxCell id="Pd2RQs8wR5pkW_N9cqv4-63" value="服务开启" style="whiteSpace=wrap;html=1;" vertex="1" parent="1">
          <mxGeometry x="1010" y="1250" width="120" height="60" as="geometry" />
        </mxCell>
        <mxCell id="Pd2RQs8wR5pkW_N9cqv4-70" value="YES" style="edgeStyle=orthogonalEdgeStyle;rounded=0;orthogonalLoop=1;jettySize=auto;html=1;entryX=0.5;entryY=0;entryDx=0;entryDy=0;" edge="1" parent="1" source="Pd2RQs8wR5pkW_N9cqv4-66" target="Pd2RQs8wR5pkW_N9cqv4-67">
          <mxGeometry relative="1" as="geometry" />
        </mxCell>
        <mxCell id="Pd2RQs8wR5pkW_N9cqv4-73" style="edgeStyle=orthogonalEdgeStyle;rounded=0;orthogonalLoop=1;jettySize=auto;html=1;entryX=0;entryY=0.75;entryDx=0;entryDy=0;exitX=0;exitY=0.5;exitDx=0;exitDy=0;" edge="1" parent="1" source="Pd2RQs8wR5pkW_N9cqv4-66" target="Pd2RQs8wR5pkW_N9cqv4-68">
          <mxGeometry relative="1" as="geometry">
            <Array as="points">
              <mxPoint x="960" y="890" />
              <mxPoint x="960" y="1165" />
            </Array>
          </mxGeometry>
        </mxCell>
        <mxCell id="Pd2RQs8wR5pkW_N9cqv4-74" value="NO" style="edgeLabel;html=1;align=center;verticalAlign=middle;resizable=0;points=[];" vertex="1" connectable="0" parent="Pd2RQs8wR5pkW_N9cqv4-73">
          <mxGeometry x="0.0778" relative="1" as="geometry">
            <mxPoint as="offset" />
          </mxGeometry>
        </mxCell>
        <mxCell id="Pd2RQs8wR5pkW_N9cqv4-66" value="是否配置落地页？" style="rhombus;whiteSpace=wrap;html=1;" vertex="1" parent="1">
          <mxGeometry x="1030" y="850" width="80" height="80" as="geometry" />
        </mxCell>
        <mxCell id="Pd2RQs8wR5pkW_N9cqv4-71" style="edgeStyle=orthogonalEdgeStyle;rounded=0;orthogonalLoop=1;jettySize=auto;html=1;" edge="1" parent="1" source="Pd2RQs8wR5pkW_N9cqv4-67" target="Pd2RQs8wR5pkW_N9cqv4-68">
          <mxGeometry relative="1" as="geometry" />
        </mxCell>
        <mxCell id="Pd2RQs8wR5pkW_N9cqv4-67" value="进入应用详情页" style="whiteSpace=wrap;html=1;" vertex="1" parent="1">
          <mxGeometry x="1010" y="1020" width="120" height="60" as="geometry" />
        </mxCell>
        <mxCell id="Pd2RQs8wR5pkW_N9cqv4-72" style="edgeStyle=orthogonalEdgeStyle;rounded=0;orthogonalLoop=1;jettySize=auto;html=1;" edge="1" parent="1" source="Pd2RQs8wR5pkW_N9cqv4-68" target="Pd2RQs8wR5pkW_N9cqv4-63">
          <mxGeometry relative="1" as="geometry" />
        </mxCell>
        <mxCell id="Pd2RQs8wR5pkW_N9cqv4-68" value="开启" style="whiteSpace=wrap;html=1;" vertex="1" parent="1">
          <mxGeometry x="1010" y="1120" width="120" height="60" as="geometry" />
        </mxCell>
        <mxCell id="Pd2RQs8wR5pkW_N9cqv4-79" value="NO" style="edgeStyle=orthogonalEdgeStyle;rounded=0;orthogonalLoop=1;jettySize=auto;html=1;entryX=0;entryY=0.5;entryDx=0;entryDy=0;" edge="1" parent="1" source="Pd2RQs8wR5pkW_N9cqv4-77" target="Pd2RQs8wR5pkW_N9cqv4-22">
          <mxGeometry relative="1" as="geometry">
            <Array as="points">
              <mxPoint x="230" y="1190" />
              <mxPoint x="230" y="1570" />
            </Array>
          </mxGeometry>
        </mxCell>
        <mxCell id="Pd2RQs8wR5pkW_N9cqv4-82" value="" style="edgeStyle=orthogonalEdgeStyle;rounded=0;orthogonalLoop=1;jettySize=auto;html=1;" edge="1" parent="1" source="Pd2RQs8wR5pkW_N9cqv4-77" target="Pd2RQs8wR5pkW_N9cqv4-81">
          <mxGeometry relative="1" as="geometry" />
        </mxCell>
        <mxCell id="Pd2RQs8wR5pkW_N9cqv4-77" value="支持试用？" style="rhombus;whiteSpace=wrap;html=1;" vertex="1" parent="1">
          <mxGeometry x="320" y="1150" width="80" height="80" as="geometry" />
        </mxCell>
        <mxCell id="Pd2RQs8wR5pkW_N9cqv4-85" value="" style="edgeStyle=orthogonalEdgeStyle;rounded=0;orthogonalLoop=1;jettySize=auto;html=1;" edge="1" parent="1" source="Pd2RQs8wR5pkW_N9cqv4-81" target="Pd2RQs8wR5pkW_N9cqv4-84">
          <mxGeometry relative="1" as="geometry" />
        </mxCell>
        <mxCell id="Pd2RQs8wR5pkW_N9cqv4-86" value="YES" style="edgeLabel;html=1;align=center;verticalAlign=middle;resizable=0;points=[];" vertex="1" connectable="0" parent="Pd2RQs8wR5pkW_N9cqv4-85">
          <mxGeometry x="0.0403" relative="1" as="geometry">
            <mxPoint as="offset" />
          </mxGeometry>
        </mxCell>
        <mxCell id="Pd2RQs8wR5pkW_N9cqv4-87" value="NO" style="edgeStyle=orthogonalEdgeStyle;rounded=0;orthogonalLoop=1;jettySize=auto;html=1;" edge="1" parent="1" source="Pd2RQs8wR5pkW_N9cqv4-81" target="Pd2RQs8wR5pkW_N9cqv4-22">
          <mxGeometry relative="1" as="geometry" />
        </mxCell>
        <mxCell id="Pd2RQs8wR5pkW_N9cqv4-81" value="有试用资格？" style="rhombus;whiteSpace=wrap;html=1;" vertex="1" parent="1">
          <mxGeometry x="320" y="1310" width="80" height="80" as="geometry" />
        </mxCell>
        <mxCell id="Pd2RQs8wR5pkW_N9cqv4-84" value="试用" style="whiteSpace=wrap;html=1;" vertex="1" parent="1">
          <mxGeometry x="440" y="1320" width="120" height="60" as="geometry" />
        </mxCell>
        <mxCell id="Pd2RQs8wR5pkW_N9cqv4-92" style="edgeStyle=orthogonalEdgeStyle;rounded=0;orthogonalLoop=1;jettySize=auto;html=1;entryX=0;entryY=0.5;entryDx=0;entryDy=0;" edge="1" parent="1" source="Pd2RQs8wR5pkW_N9cqv4-88" target="Pd2RQs8wR5pkW_N9cqv4-36">
          <mxGeometry relative="1" as="geometry">
            <Array as="points">
              <mxPoint x="690" y="1190" />
              <mxPoint x="690" y="1500" />
            </Array>
          </mxGeometry>
        </mxCell>
        <mxCell id="Pd2RQs8wR5pkW_N9cqv4-93" value="NO" style="edgeLabel;html=1;align=center;verticalAlign=middle;resizable=0;points=[];" vertex="1" connectable="0" parent="Pd2RQs8wR5pkW_N9cqv4-92">
          <mxGeometry x="-0.0662" relative="1" as="geometry">
            <mxPoint as="offset" />
          </mxGeometry>
        </mxCell>
        <mxCell id="Pd2RQs8wR5pkW_N9cqv4-94" style="edgeStyle=orthogonalEdgeStyle;rounded=0;orthogonalLoop=1;jettySize=auto;html=1;" edge="1" parent="1" source="Pd2RQs8wR5pkW_N9cqv4-88" target="Pd2RQs8wR5pkW_N9cqv4-89">
          <mxGeometry relative="1" as="geometry" />
        </mxCell>
        <mxCell id="Pd2RQs8wR5pkW_N9cqv4-88" value="支持试用？" style="rhombus;whiteSpace=wrap;html=1;" vertex="1" parent="1">
          <mxGeometry x="750" y="1150" width="80" height="80" as="geometry" />
        </mxCell>
        <mxCell id="Pd2RQs8wR5pkW_N9cqv4-95" value="YES" style="edgeStyle=orthogonalEdgeStyle;rounded=0;orthogonalLoop=1;jettySize=auto;html=1;" edge="1" parent="1" source="Pd2RQs8wR5pkW_N9cqv4-89" target="Pd2RQs8wR5pkW_N9cqv4-90">
          <mxGeometry relative="1" as="geometry" />
        </mxCell>
        <mxCell id="Pd2RQs8wR5pkW_N9cqv4-96" value="" style="edgeStyle=orthogonalEdgeStyle;rounded=0;orthogonalLoop=1;jettySize=auto;html=1;" edge="1" parent="1" source="Pd2RQs8wR5pkW_N9cqv4-89" target="Pd2RQs8wR5pkW_N9cqv4-36">
          <mxGeometry relative="1" as="geometry" />
        </mxCell>
        <mxCell id="Pd2RQs8wR5pkW_N9cqv4-97" value="NO" style="edgeLabel;html=1;align=center;verticalAlign=middle;resizable=0;points=[];" vertex="1" connectable="0" parent="Pd2RQs8wR5pkW_N9cqv4-96">
          <mxGeometry x="-0.2857" y="-1" relative="1" as="geometry">
            <mxPoint as="offset" />
          </mxGeometry>
        </mxCell>
        <mxCell id="Pd2RQs8wR5pkW_N9cqv4-89" value="有试用资格？" style="rhombus;whiteSpace=wrap;html=1;" vertex="1" parent="1">
          <mxGeometry x="750" y="1310" width="80" height="80" as="geometry" />
        </mxCell>
        <mxCell id="Pd2RQs8wR5pkW_N9cqv4-90" value="试用" style="whiteSpace=wrap;html=1;" vertex="1" parent="1">
          <mxGeometry x="870" y="1320" width="120" height="60" as="geometry" />
        </mxCell>
      </root>
    </mxGraphModel>
  </diagram>
</mxfile>
